HIERARCHY
ROOT Hips
{
	OFFSET 0.00 0.00 0.00
	CHANNELS 6 Xposition Yposition Zposition Xrotation Yrotation Zrotation
	JOINT LeftUpLeg
	{
		OFFSET 2.63333 0.00000 0.00000
		CHANNELS 3 Xrotation Yrotation Zrotation
		JOINT LeftLeg
		{
			OFFSET 0.00000 -16.49536 0.00000
			CHANNELS 3 Xrotation Yrotation Zrotation
			JOINT LeftFoot
			{
				OFFSET 0.00000 -14.46025 0.00000
				CHANNELS 3 Xrotation Yrotation Zrotation
				JOINT LeftToeBase
				{
					OFFSET 0.00000 -1.61074 6.01136
					CHANNELS 3 Xrotation Yrotation Zrotation
					End Site
					{
						OFFSET 0.00000 0.00000 2.95275
					}
				}
			}
		}
	}
	JOINT RightUpLeg
	{
		OFFSET -2.63333 0.00000 0.00000
		CHANNELS 3 Xrotation Yrotation Zrotation
		JOINT RightLeg
		{
			OFFSET 0.00000 -16.49536 0.00000
			CHANNELS 3 Xrotation Yrotation Zrotation
			JOINT RightFoot
			{
				OFFSET 0.00000 -14.46025 0.00000
				CHANNELS 3 Xrotation Yrotation Zrotation
				JOINT RightToeBase
				{
					OFFSET 0.00000 -1.61074 6.01136
					CHANNELS 3 Xrotation Yrotation Zrotation
					End Site
					{
						OFFSET 0.00000 0.00000 2.95275
					}
				}
			}
		}
	}
	JOINT Spine
	{
		OFFSET 0.00000 0.03937 0.00000
		CHANNELS 3 Xrotation Yrotation Zrotation
		JOINT Spine1
		{
			OFFSET 0.00000 8.73652 0.00000
			CHANNELS 3 Xrotation Yrotation Zrotation
			JOINT Neck
			{
				OFFSET 0.00000 8.59038 0.00000
				CHANNELS 3 Xrotation Yrotation Zrotation
				JOINT Head
				{
					OFFSET 0.00000 7.06117 0.00000
					CHANNELS 3 Xrotation Yrotation Zrotation
					End Site
					{
						OFFSET 0.00000 4.52755 0.00000
					}
				}
			}
			JOINT LeftShoulder
			{
				OFFSET 0.00000 8.59038 0.00000
				CHANNELS 3 Xrotation Yrotation Zrotation
				JOINT LeftArm
				{
					OFFSET 6.99892 -0.00003 0.00000
					CHANNELS 3 Xrotation Yrotation Zrotation
					JOINT LeftForeArm
					{
						OFFSET 10.51892 -0.00004 0.00000
						CHANNELS 3 Xrotation Yrotation Zrotation
						JOINT LeftHand
						{
							OFFSET 8.73923 -0.00003 0.00000
							CHANNELS 3 Xrotation Yrotation Zrotation
							JOINT LeftHandThumb
							{
								OFFSET 0.00000 0.00000 0.00000
								CHANNELS 3 Xrotation Yrotation Zrotation
								End Site
								{
									OFFSET 0.00000 0.00000 3.93700
								}
							}
							JOINT L_Wrist_End
							{
								OFFSET 3.93700 -0.00001 0.00000
								CHANNELS 3 Xrotation Yrotation Zrotation
							}
						}
					}
				}
			}
			JOINT RightShoulder
			{
				OFFSET 0.00000 8.59038 0.00000
				CHANNELS 3 Xrotation Yrotation Zrotation
				JOINT RightArm
				{
					OFFSET -6.99892 -0.00003 0.00000
					CHANNELS 3 Xrotation Yrotation Zrotation
					JOINT RightForeArm
					{
						OFFSET -10.51892 -0.00004 0.00000
						CHANNELS 3 Xrotation Yrotation Zrotation
						JOINT RightHand
						{
							OFFSET -8.73923 -0.00003 0.00000
							CHANNELS 3 Xrotation Yrotation Zrotation
							JOINT RightHandThumb
							{
								OFFSET 0.00000 0.00000 0.00000
								CHANNELS 3 Xrotation Yrotation Zrotation
								End Site
								{
									OFFSET 0.00000 0.00000 3.93700
								}
							}
							JOINT R_Wrist_End
							{
								OFFSET -5.39369 -0.00002 0.00000
								CHANNELS 3 Xrotation Yrotation Zrotation
							}
						}
					}
				}
			}
		}
	}
}
MOTION
Frames: 12
Frame Time: 0.066664
 70.6652 30.2048 -10.6503 -11.5910 49.4754 17.1231 -30.1234 17.5319 18.5771 21.1055 -0.0000 -0.0000 36.2163 -8.9216 2.4814 -11.3160 0.0000 0.0000 -2.4033 -12.9074 -27.6705 40.5290 -0.0000 0.0000 -24.0243 -17.7983 14.5962 1.8304 -0.0000 0.0000 14.8410 7.8601 0.7485 5.2934 9.7824 -2.6376 -3.3528 4.7814 -1.2134 -12.2546 2.5284 -3.3696 1.8191 15.9836 11.0386 31.5554 -35.6079 -69.1138 -0.0010 -78.1098 -0.0008 -33.5473 -20.2183 17.0842 -0.0000 0.0000 -0.0000 -0.0000 0.0000 -0.0000 23.9534 -8.7163 -4.7320 -58.7628 44.0911 81.6033 -179.9995 67.6273 179.9992 -1.4811 -10.0982 -11.2995 -0.0000 0.0000 -0.0000 -0.0000 0.0000 -0.0000
 67.8049 32.1451 -9.2567 -34.6771 68.8366 38.0221 -26.7264 20.4301 11.2184 27.5986 -0.0000 0.0000 23.1710 -32.9979 -3.2803 -10.4470 -0.0000 -0.0000 3.6537 -25.6368 -17.7739 38.1786 -0.0000 0.0000 -11.3358 -26.9142 13.4730 -6.2965 0.0000 0.0000 13.2560 5.4332 -2.7025 1.4720 8.4693 8.3622 3.4588 2.2126 -2.1938 -14.9591 -4.2890 -1.8809 3.6829 15.9325 13.2447 46.4871 -29.4581 -61.6207 -0.0045 -87.3021 -0.0043 -29.6192 -16.1559 17.1365 -0.0000 -0.0000 0.0000 -0.0000 -0.0000 0.0000 19.3907 -14.0045 -7.3216 -47.2717 40.2673 64.7567 -179.9990 77.8137 179.9988 3.1760 -18.4652 -1.0557 -0.0000 0.0000 -0.0000 -0.0000 0.0000 -0.0000
 65.0996 34.5527 -8.7168 -72.8425 76.1343 77.2824 -15.0854 15.7065 5.9771 45.9428 -0.0000 0.0000 7.1686 -11.7360 5.3428 -12.5241 0.0000 -0.0000 -3.4512 -11.5136 -12.7266 50.8023 -0.0000 0.0000 4.8100 -10.0552 8.3906 -4.8090 0.0000 -0.0000 14.8182 3.1791 -3.5793 -2.0279 5.8947 6.8548 -0.2469 0.7350 -3.1973 -7.1553 -10.6362 0.5283 3.8964 15.4753 15.8263 27.2745 -38.9947 -63.2279 -179.9960 -86.9567 -179.9958 -14.3930 -9.5957 5.8140 -0.0000 -0.0000 0.0000 -0.0000 -0.0000 0.0000 18.0628 -19.3978 -5.0817 -22.0878 41.1370 59.8222 -0.0008 76.0391 0.0007 0.6814 -9.7726 -10.2913 -0.0000 0.0000 -0.0000 -0.0000 0.0000 -0.0000
 62.6429 35.0711 -7.7277 -107.4528 77.8303 109.6900 -4.5062 13.1190 13.2643 56.5023 -0.0000 0.0000 2.6684 -6.9663 8.8196 -11.9231 -0.0000 0.0000 -14.2040 -0.0071 -5.8163 52.4164 -0.0000 0.0000 5.3837 -7.3676 7.2990 -6.3892 0.0000 0.0000 12.2823 1.8692 -4.9898 -2.0541 3.9405 7.8930 0.7523 1.5398 -6.1860 -8.2221 -12.2360 5.8982 11.4884 15.3275 9.8800 -4.9701 -43.2984 -70.4776 -179.9987 -80.6509 -179.9985 -14.6311 -11.4552 4.1739 -0.0000 0.0000 -0.0000 -0.0000 0.0000 -0.0000 20.0118 -21.1046 -3.0401 -6.8022 44.1904 53.6246 -0.0005 69.0338 0.0004 -0.4566 -10.2282 -6.8945 -0.0000 0.0000 -0.0000 -0.0000 0.0000 -0.0000
 60.3840 33.8738 -6.8366 -149.4260 70.7084 150.2012 -1.0599 9.6233 21.9670 63.7876 -0.0000 0.0000 2.7202 -7.3224 11.8456 -12.6251 0.0000 0.0000 -11.1376 -11.7470 -6.3603 34.3885 -0.0000 0.0000 9.0334 -7.5383 5.2651 -14.2901 0.0000 0.0000 10.9321 -0.7757 -4.8985 -5.0192 2.2501 4.3811 0.9260 0.9675 -6.3985 -4.3975 -16.1391 8.4337 14.0380 16.3470 8.1248 -14.8678 -40.0981 -90.7063 -179.9979 -84.2579 -179.9977 -20.5230 -11.5658 5.8745 -0.0000 0.0000 -0.0000 -0.0000 0.0000 -0.0000 17.9082 -26.3476 -4.6022 -13.3428 43.7451 55.0070 -0.0062 88.0431 0.0060 5.6053 -10.4294 -5.4949 -0.0000 0.0000 -0.0000 -0.0000 0.0000 -0.0000
 58.0728 33.0606 -5.7008 -165.6962 62.3278 156.9823 -11.8423 11.0765 41.6963 68.9532 -0.0000 0.0000 3.9103 -7.0673 11.8616 -13.2552 0.0000 0.0000 -7.0205 -24.6049 2.7262 20.6743 -0.0000 0.0000 8.9453 -6.3616 6.3272 -12.2817 0.0000 -0.0000 8.9167 3.0198 -0.7955 -9.8949 6.9418 -2.0830 2.8624 -2.1941 1.8563 -1.2957 -23.0674 9.6787 13.6640 23.1276 12.6922 8.2292 -38.2371 -78.3219 -0.0006 -71.9043 -0.0005 -15.3239 -7.3059 9.9380 -0.0000 0.0000 -0.0000 -0.0000 0.0000 -0.0000 18.1480 -28.6506 -2.9001 -24.3263 31.8677 51.4350 -179.9970 85.9604 179.9968 1.4055 -9.2877 -21.5897 -0.0000 0.0000 -0.0000 -0.0000 0.0000 -0.0000
 55.9583 33.9947 -6.1272 -156.7845 40.9345 147.5494 -7.4669 15.3899 49.2056 58.7686 -0.0000 0.0000 8.6880 4.1271 9.8683 -11.9068 0.0000 0.0000 -15.7780 -31.7652 -13.5341 47.6193 -0.0000 0.0000 35.5090 7.3998 17.2107 -0.6554 0.0000 0.0000 11.3959 0.2051 -5.6480 -2.1518 4.0444 -0.3666 10.6931 -0.6988 4.6037 5.5306 -32.5620 27.0657 13.8277 22.0623 21.9242 26.5287 -29.4751 -55.4289 -0.0005 -68.4637 -0.0004 -18.3051 -8.8886 7.9672 -0.0000 0.0000 -0.0000 -0.0000 0.0000 -0.0000 13.0467 -22.4834 -9.5100 2.6000 34.0462 52.4171 -0.0006 69.1663 0.0004 6.4533 -11.5285 -10.3387 -0.0000 0.0000 -0.0000 -0.0000 0.0000 -0.0000
 52.9419 33.0257 -6.7165 -167.6018 11.3154 144.4823 -16.9184 7.8854 59.1230 46.9490 -0.0000 0.0000 1.6760 -3.1777 -0.9857 -20.9129 0.0000 -0.0000 -31.6511 -22.1786 -38.8440 91.9141 -0.0000 0.0000 46.4547 17.8008 14.8257 -2.6295 0.0000 -0.0000 16.9271 -7.2094 -6.5036 -3.2194 -2.7984 17.7247 18.9555 -10.2375 7.4486 2.6855 -33.3438 31.2776 13.9276 14.7948 20.2781 20.4644 -43.4659 -34.4856 -0.0017 -83.0959 -0.0015 -12.7705 -8.5089 2.5874 -0.0000 0.0000 -0.0000 -0.0000 0.0000 -0.0000 14.9113 -11.7965 -5.6718 38.7767 49.5317 54.2235 -0.0001 26.6572 0.0000 2.3662 -15.7517 13.6224 -0.0000 0.0000 -0.0000 -0.0000 0.0000 -0.0000
 49.3816 31.1685 -5.7129 -177.4471 2.9228 139.1043 -33.1574 -1.9316 57.7082 57.2529 -0.0000 0.0000 -22.2324 -5.1547 5.0414 -9.3978 0.0000 0.0000 -25.4997 10.3825 -51.5950 77.6810 -0.0000 0.0000 49.5185 20.5966 4.7533 1.6261 -0.0000 -0.0000 19.8934 -10.6882 -5.3103 -2.4720 -7.3475 29.3812 19.3744 -17.7996 12.0552 -0.4426 -26.1696 33.9480 13.3049 8.2598 12.3268 -33.9377 -53.7008 -67.5980 -179.9905 -88.7270 -179.9903 -5.1040 -8.4164 1.5716 -0.0000 0.0000 -0.0000 -0.0000 0.0000 -0.0000 17.7973 -14.7035 -5.4069 31.2350 58.0525 75.1480 -0.0001 26.3029 0.0000 12.5710 -23.0315 31.6272 -0.0000 0.0000 -0.0000 -0.0000 0.0000 -0.0000
 44.8200 30.9162 -5.3585 -171.6924 15.4224 136.4396 -30.7955 3.1215 51.1550 64.9038 -0.0000 0.0000 -26.8816 10.4816 17.4679 -9.2307 0.0000 0.0000 -34.4175 10.5001 -50.3388 5.9988 -0.0000 -0.0000 31.5625 -14.6494 8.2079 -10.1813 0.0000 0.0000 22.6537 -9.7980 -7.6739 -3.2216 -7.9641 36.4946 18.5343 -10.6996 5.9971 -4.5926 -23.4092 30.8850 17.7860 -0.7403 9.8122 -69.3446 -44.5969 -97.0689 -179.9825 -89.3092 -179.9823 -11.8063 -12.1517 5.5106 -0.0000 0.0000 -0.0000 -0.0000 0.0000 -0.0000 17.1657 -19.5856 -8.6930 32.8297 44.4389 67.9459 -0.0002 40.8224 0.0001 9.2447 -24.0875 20.2528 -0.0000 0.0000 -0.0000 -0.0000 0.0000 -0.0000
 41.5169 32.7409 -5.1271 -162.9497 24.4139 128.0876 -21.2471 11.7238 48.3202 49.9800 -0.0000 0.0000 -21.5413 24.1048 23.3051 -8.3175 0.0000 -0.0000 -63.1497 11.3716 -22.4003 49.1785 0.0000 -0.0000 19.2904 -12.2570 9.8712 2.4668 0.0000 0.0000 24.4195 -8.5393 -6.5163 -1.6034 -7.2974 39.0619 17.5996 -8.6538 2.4662 -7.2844 -19.3569 22.5908 19.6358 -4.0414 10.3313 -65.7399 -47.3733 -85.0094 -179.9985 -81.8540 -179.9983 -13.1428 -13.2527 3.4253 -0.0000 -0.0000 0.0000 -0.0000 -0.0000 0.0000 15.3808 -23.7770 -8.7663 26.9804 37.7458 58.2782 -0.0003 54.4144 0.0002 12.0000 -20.7004 12.9253 -0.0000 0.0000 -0.0000 -0.0000 0.0000 -0.0000
 37.2628 35.2000 -6.3992 -162.9919 26.3379 140.7145 -20.5515 36.2837 35.6986 30.4485 -0.0000 0.0000 2.3143 8.9364 18.4737 -22.1404 0.0000 0.0000 -66.0148 7.4977 -18.7287 85.1815 -0.0000 0.0000 19.4655 -8.1417 6.8362 -2.0566 0.0000 -0.0000 20.3479 -10.9627 -3.7951 -4.3650 -8.5081 24.3647 17.2377 -14.0523 4.1833 -5.1688 -13.7665 17.9512 15.7472 4.7857 8.9557 -44.5232 -52.2835 -82.7249 -179.9879 -89.0056 -179.9877 -10.1988 -9.7625 3.3801 -0.0000 0.0000 -0.0000 -0.0000 0.0000 -0.0000 16.6796 -19.0851 -5.7372 16.0526 33.2981 57.0743 -0.0003 58.4750 0.0002 8.8116 -17.0413 9.5113 -0.0000 0.0000 -0.0000 -0.0000 0.0000 -0.0000
